<svg width="64" height="49" viewBox="0 0 64 49" fill="none" xmlns="http://www.w3.org/2000/svg">
<path d="M58.6218 13.1832C60.3267 11.4722 61.6793 9.44014 62.6021 7.20324C63.525 4.96635 64 2.56853 64 0.146954C64 -2.27462 63.525 -4.67244 62.6021 -6.90934C61.6793 -9.14623 60.3267 -11.1783 58.6218 -12.8893L34.4236 -37.1539L31.9242 -39.666L29.4438 -37.1539L5.37818 -12.8893C3.67327 -11.1783 2.32071 -9.14623 1.39787 -6.90934C0.475025 -4.67244 0 -2.27462 0 0.146954C0 2.56853 0.475025 4.96635 1.39787 7.20324C2.32071 9.44014 3.67327 11.4722 5.37818 13.1832L29.5006 37.4288V48.9997H34.4236V37.4288L58.6218 13.1832ZM57.1071 11.6417L34.4236 34.3648V30.5586L61.5188 3.43933C60.8949 6.5462 59.3735 9.39925 57.1449 11.6417H57.1071ZM34.4236 16.3804L59.2277 -8.55024C60.8709 -5.963 61.7507 -2.96053 61.7649 0.108891L34.4236 27.5326V16.3804ZM34.4236 -5.75268L48.4919 -19.8927L54.0397 -14.3166L34.4236 5.3234V-5.75268ZM34.4236 -8.79764V-13.7647L44.5346 -23.9273L46.9771 -21.4723L34.4236 -8.79764ZM29.4249 -20.7682L22.8925 -27.391L25.3351 -29.846L29.5006 -25.6592L29.4249 -20.7682ZM29.4249 -17.7232V-5.42915L15.262 -19.7786L21.3778 -25.9256L29.4249 -17.7232ZM29.4249 -2.36514V2.52584L11.2289 -15.763L13.6714 -18.199L29.4249 -2.36514ZM29.4249 23.5171L2.59482 -3.58314C2.83845 -4.62236 3.18083 -5.63567 3.61726 -6.60907L29.5006 19.4064L29.4249 23.5171ZM58.0159 -10.263L34.4236 13.2784V8.3874L55.6302 -12.8513L57.1071 -11.3668C57.4289 -11.0433 57.7319 -10.7007 58.0159 -10.3582V-10.263ZM43.0956 -25.4879L34.4236 -16.8097V-34.0899L43.0956 -25.4879ZM29.5006 -28.8183L26.8498 -31.4256L29.5006 -34.0899V-28.8183ZM6.89294 -11.4049L9.80884 -14.2786L29.5196 5.51371V16.3804L4.69654 -8.55024C5.33694 -9.55126 6.07939 -10.4825 6.91187 -11.3288L6.89294 -11.4049ZM6.91187 11.6798C5.40939 10.1857 4.21593 8.40758 3.40026 6.44783C2.58459 4.48808 2.16285 2.38546 2.15933 0.261135C2.15933 -0.100452 2.15933 -0.443008 2.15933 -0.804596L29.5006 26.524V34.3648L6.91187 11.6798Z" fill="#C1825B"/>
</svg>
