<svg width="96" height="60" viewBox="0 0 96 60" fill="none" xmlns="http://www.w3.org/2000/svg">
<g clip-path="url(#clip0_6612_15138)">
<path d="M46.3014 20.6075L27.2812 20.6066L27.2813 19.488L46.3015 19.4888L46.3014 20.6075Z" fill="white"/>
<path d="M49.5938 20.6157V19.4971H68.6135V20.6157H49.5938Z" fill="white"/>
<path d="M42.4048 12.3059C41.7263 11.6227 41.3527 10.7139 41.3527 9.74797C41.3527 9.66928 41.359 9.59101 41.3637 9.51273L47.4208 15.6128V17.3572L42.4048 12.3059ZM42.4048 7.18957L43.0485 6.5414L47.4212 10.9449V13.3518L41.9149 7.80727C42.0548 7.58727 42.2166 7.37869 42.4048 7.18957ZM47.4212 3.3196L46.8351 2.72939L47.4212 2.13876V3.3196ZM50.4393 4.05873L48.5313 5.97912L48.5322 2.13834L50.4393 4.05873ZM53.7498 7.41423L48.5313 12.6685V11.5799L53.2196 6.85914L53.5481 7.18999C53.6196 7.26192 53.6859 7.33765 53.7498 7.41423ZM47.4208 14.9337L41.4502 8.92084C41.504 8.68856 41.58 8.4639 41.6779 8.24813L47.4212 14.0309L47.4208 14.9337ZM47.4212 9.17723V10.2658L43.3855 6.20166L43.9263 5.65757L47.4212 9.17723ZM47.4212 5.76631V8.49817L44.2637 5.31826L45.62 3.95253L47.4212 5.76631ZM47.4212 5.08683L45.9578 3.61322L46.4981 3.06871L47.4212 3.99865V5.08683ZM48.5313 7.7472V6.65817L50.7763 4.39847L51.3166 4.94256L48.5313 7.7472ZM48.5313 8.42583L51.654 5.28187L52.8826 6.51982L48.5313 10.9013V8.42583ZM48.5313 13.3476L54.0368 7.80558C54.3985 8.37506 54.596 9.03592 54.5994 9.72808L48.5313 15.8379V13.3476ZM53.5481 12.3064L48.5313 17.3572V16.5169L54.5263 10.4812C54.3868 11.1678 54.0519 11.7991 53.5481 12.3064ZM53.8851 12.6465C54.654 11.8719 55.0775 10.8429 55.078 9.74839C55.078 8.65345 54.654 7.6245 53.8851 6.85025L48.5322 1.45886V1.45633H48.5296L47.9771 0.900391L47.4246 1.45633H47.4212V1.45929L42.0674 6.84983C41.299 7.62408 40.875 8.65302 40.875 9.74797C40.875 10.8429 41.299 11.8714 42.0674 12.6461L47.4208 18.0367V20.6086H48.5313V18.0367L53.8851 12.6465Z" fill="white"/>
<path d="M12.0649 57.7771H11.0069V56.265H12.0649C13.0388 56.265 13.0388 57.7771 12.0649 57.7771ZM12.0649 56.0547H10.7812V59.0023H11.0069V57.9831H12.0649C13.3359 57.9831 13.3359 56.0547 12.0649 56.0547Z" fill="white"/>
<path d="M15.6006 57.6713V56.2658H16.6628C17.1481 56.2658 17.3821 56.6233 17.3779 56.9686C17.3733 57.3811 17.1481 57.6713 16.6376 57.6713H15.6006ZM17.6242 56.9728C17.6208 56.5142 17.2985 56.0547 16.6628 56.0547H15.3754L15.375 59.0023H15.6006V57.8866H16.3994L17.4111 59.0023H17.7082L16.6754 57.874C17.3153 57.874 17.6288 57.4521 17.6242 56.9728Z" fill="white"/>
<path d="M21.3506 58.8407C20.5191 58.8407 20.1006 58.1916 20.0964 57.527C20.0922 56.8319 20.5103 56.2171 21.3506 56.2171C22.191 56.2171 22.6095 56.8445 22.6095 57.527C22.6095 58.1925 22.1868 58.8407 21.3506 58.8407ZM21.3506 56.0068C20.3641 56.0068 19.875 56.7312 19.875 57.5228C19.875 58.3017 20.3683 59.0509 21.3506 59.0509C22.3334 59.0509 22.8225 58.305 22.8271 57.5308C22.8313 56.735 22.3376 56.0068 21.3506 56.0068Z" fill="white"/>
<path d="M28.4448 57.6713V56.265H29.5066C29.9923 56.265 30.2263 56.6225 30.2217 56.9686C30.2175 57.3806 29.9923 57.6713 29.4818 57.6713H28.4448ZM30.4683 56.9728C30.4645 56.5133 30.1427 56.0547 29.5066 56.0547H28.2192L28.2188 59.0015H28.4448V57.8858H29.2435L30.2549 59.0023H30.5519L29.5192 57.874C30.1595 57.874 30.4725 57.4526 30.4683 56.9728Z" fill="white"/>
<path d="M33.0343 57.6205L34.7486 57.6214V57.4145H33.0343V56.2692H34.8322V56.0547H32.8125V59.0015H34.8822V58.7827H33.0343V57.6205Z" fill="white"/>
<path d="M38.5049 57.6765H39.525L39.5246 58.5011C39.2738 58.733 38.9477 58.8421 38.6343 58.8421C37.7813 58.8421 37.3422 58.2447 37.3422 57.5492C37.338 56.868 37.7771 56.2363 38.6343 56.2363C38.9645 56.2363 39.32 56.3628 39.575 56.615L39.7044 56.472C39.4078 56.1771 39.0191 56.0303 38.6343 56.0303C37.7435 56.0303 37.1208 56.6319 37.125 57.5538C37.125 58.3581 37.6389 59.0566 38.6343 59.0566C39.0687 59.0566 39.4326 58.8887 39.738 58.5811V57.4781H38.5049V57.6765Z" fill="white"/>
<path d="M42.5027 57.6214H44.217V57.4145H42.5027V56.2692L44.3006 56.27V56.0547H42.2812V59.0023H44.3506V58.7836H42.5027V57.6214Z" fill="white"/>
<path d="M50.0027 57.6205H51.717V57.4145H50.0027V56.2692H51.8002V56.0547H49.7812V59.0015H51.8506V58.7827H50.0027V57.6205Z" fill="white"/>
<path d="M54.1875 56.279H55.2455V59.0197H55.4711V56.279H56.5287V56.0771H54.1875V56.279Z" fill="white"/>
<path d="M63.1586 57.7762H62.1006V56.265H63.1586C64.133 56.265 64.133 57.7762 63.1586 57.7762ZM63.1586 56.0547H61.875V59.0019H62.1006V57.9831H63.1586C64.4296 57.9831 64.4296 56.0547 63.1586 56.0547Z" fill="white"/>
<path d="M66.8358 58.0673L67.6215 56.2738L68.4077 58.0673H66.8358ZM67.5005 56.0547L66.1875 59.0023H66.4299L66.748 58.2784H68.4959L68.8182 59.0023H69.0598L67.7476 56.0547H67.5005Z" fill="white"/>
<path d="M70.5938 56.2798H71.6517V59.0206H71.8778V56.2798H72.9358V56.0771H70.5938V56.2798Z" fill="white"/>
<path d="M75.4136 57.6713V56.265H76.4753C76.961 56.265 77.1947 56.6225 77.1905 56.9677C77.1867 57.3806 76.961 57.6713 76.451 57.6713H75.4136ZM77.4371 56.9719C77.4333 56.5133 77.1115 56.0547 76.4753 56.0547H75.1879L75.1875 59.0015H75.4136V57.8858H76.2123L77.2241 59.0023H77.5207L76.4883 57.8731C77.1283 57.8731 77.4413 57.4526 77.4371 56.9719Z" fill="white"/>
<path d="M80.0027 56.0547H79.7812V59.0015H80.0027V56.0547Z" fill="white"/>
<path d="M82.9608 58.0673L83.7465 56.2738L84.5327 58.0673H82.9608ZM83.8726 56.0547H83.6251L82.3125 59.0015H82.5549L82.8726 58.2776H84.6209L84.9423 59.0015H85.1848L83.8726 56.0547Z" fill="white"/>
<path d="M12.0649 57.7771H11.0069V56.265H12.0649C13.0388 56.265 13.0388 57.7771 12.0649 57.7771ZM12.0649 56.0547H10.7812V59.0023H11.0069V57.9831H12.0649C13.3359 57.9831 13.3359 56.0547 12.0649 56.0547Z" fill="white"/>
<path d="M15.6006 57.6713V56.2658H16.6628C17.1481 56.2658 17.3821 56.6233 17.3779 56.9686C17.3733 57.3811 17.1481 57.6713 16.6376 57.6713H15.6006ZM17.6242 56.9728C17.6208 56.5142 17.2985 56.0547 16.6628 56.0547H15.3754L15.375 59.0023H15.6006V57.8866H16.3994L17.4111 59.0023H17.7082L16.6754 57.874C17.3153 57.874 17.6288 57.4521 17.6242 56.9728Z" fill="white"/>
<path d="M21.3506 58.8407C20.5191 58.8407 20.1006 58.1916 20.0964 57.527C20.0922 56.8319 20.5103 56.2171 21.3506 56.2171C22.191 56.2171 22.6095 56.8445 22.6095 57.527C22.6095 58.1925 22.1868 58.8407 21.3506 58.8407ZM21.3506 56.0068C20.3641 56.0068 19.875 56.7312 19.875 57.5228C19.875 58.3017 20.3683 59.0509 21.3506 59.0509C22.3334 59.0509 22.8225 58.305 22.8271 57.5308C22.8313 56.735 22.3376 56.0068 21.3506 56.0068Z" fill="white"/>
<path d="M28.4448 57.6713V56.265H29.5066C29.9923 56.265 30.2263 56.6225 30.2217 56.9686C30.2175 57.3806 29.9923 57.6713 29.4818 57.6713H28.4448ZM30.4683 56.9728C30.4645 56.5133 30.1427 56.0547 29.5066 56.0547H28.2192L28.2188 59.0015H28.4448V57.8858H29.2435L30.2549 59.0023H30.5519L29.5192 57.874C30.1595 57.874 30.4725 57.4526 30.4683 56.9728Z" fill="white"/>
<path d="M33.0343 57.6205L34.7486 57.6214V57.4145H33.0343V56.2692H34.8322V56.0547H32.8125V59.0015H34.8822V58.7827H33.0343V57.6205Z" fill="white"/>
<path d="M38.5049 57.6765H39.525L39.5246 58.5011C39.2738 58.733 38.9477 58.8421 38.6343 58.8421C37.7813 58.8421 37.3422 58.2447 37.3422 57.5492C37.338 56.868 37.7771 56.2363 38.6343 56.2363C38.9645 56.2363 39.32 56.3628 39.575 56.615L39.7044 56.472C39.4078 56.1771 39.0191 56.0303 38.6343 56.0303C37.7435 56.0303 37.1208 56.6319 37.125 57.5538C37.125 58.3581 37.6389 59.0566 38.6343 59.0566C39.0687 59.0566 39.4326 58.8887 39.738 58.5811V57.4781H38.5049V57.6765Z" fill="white"/>
<path d="M42.5027 57.6214H44.217V57.4145H42.5027V56.2692L44.3006 56.27V56.0547H42.2812V59.0023H44.3506V58.7836H42.5027V57.6214Z" fill="white"/>
<path d="M50.0027 57.6205H51.717V57.4145H50.0027V56.2692H51.8002V56.0547H49.7812V59.0015H51.8506V58.7827H50.0027V57.6205Z" fill="white"/>
<path d="M54.1875 56.279H55.2455V59.0197H55.4711V56.279H56.5287V56.0771H54.1875V56.279Z" fill="white"/>
<path d="M63.1586 57.7762H62.1006V56.265H63.1586C64.133 56.265 64.133 57.7762 63.1586 57.7762ZM63.1586 56.0547H61.875V59.0019H62.1006V57.9831H63.1586C64.4296 57.9831 64.4296 56.0547 63.1586 56.0547Z" fill="white"/>
<path d="M66.8358 58.0673L67.6215 56.2738L68.4077 58.0673H66.8358ZM67.5005 56.0547L66.1875 59.0023H66.4299L66.748 58.2784H68.4959L68.8182 59.0023H69.0598L67.7476 56.0547H67.5005Z" fill="white"/>
<path d="M70.5938 56.2798H71.6517V59.0206H71.8778V56.2798H72.9358V56.0771H70.5938V56.2798Z" fill="white"/>
<path d="M75.4136 57.6713V56.265H76.4753C76.961 56.265 77.1947 56.6225 77.1905 56.9677C77.1867 57.3806 76.961 57.6713 76.451 57.6713H75.4136ZM77.4371 56.9719C77.4333 56.5133 77.1115 56.0547 76.4753 56.0547H75.1879L75.1875 59.0015H75.4136V57.8858H76.2123L77.2241 59.0023H77.5207L76.4883 57.8731C77.1283 57.8731 77.4413 57.4526 77.4371 56.9719Z" fill="white"/>
<path d="M80.0027 56.0547H79.7812V59.0015H80.0027V56.0547Z" fill="white"/>
<path d="M82.9608 58.0673L83.7465 56.2738L84.5327 58.0673H82.9608ZM83.8726 56.0547H83.6251L82.3125 59.0015H82.5549L82.8726 58.2776H84.6209L84.9423 59.0015H85.1848L83.8726 56.0547Z" fill="white"/>
<path d="M19.0395 28.5126V28.8202C16.9303 28.8202 16.5416 28.7922 14.1551 35.4994L9.4643 48.1874H9.1311C7.43824 44.0513 2.60925 30.7482 2.60925 30.7482C1.8874 28.8477 1.05462 28.8202 0 28.8202V28.5126H6.74454V28.8202C4.46849 28.8202 4.77395 30.6085 4.88488 30.8882L10.158 45.5604L13.8496 35.4436C15.1815 31.5588 16.3475 28.8202 12.6282 28.8202V28.5126H19.0395Z" fill="white"/>
<path d="M27.561 28.5126V28.7922C26.3677 28.7922 25.84 29.1273 25.84 30.8603V45.3924C25.84 47.2929 26.3954 47.8798 27.561 47.8798V48.1874H21.8438V47.8798C23.037 47.8798 23.5921 47.2929 23.5921 45.3924V30.8603C23.5921 29.1273 23.0648 28.7922 21.8438 28.7922V28.5126H27.561Z" fill="white"/>
<path d="M41.5802 41.6756L37.8058 31.8664L34.2806 41.6756H41.5802ZM47.7419 48.1874H42.2188V47.8802C43.3839 47.8802 43.6898 46.9854 42.6902 44.6377L41.6911 41.9832H34.1974C33.0318 45.3366 32.0881 47.9356 35.6965 47.8802V48.1874H29.8125V47.8802C31.0335 47.8802 31.7272 47.5726 33.9755 41.2284L38.5549 28.5126H38.7491C40.4423 32.6207 45.4936 45.4766 45.4936 45.4766C46.3818 47.7122 46.9369 47.8239 47.7419 47.8802V48.1874Z" fill="white"/>
<path d="M57.9577 28.5126V28.7922C56.7085 28.7922 55.848 29.5745 55.848 31.3633V43.1006C55.848 49.4168 53.5446 52.1834 49.0207 52.8544L48.9375 52.5748C51.3245 51.7083 53.6278 49.6961 53.6278 43.6316V34.7726C53.6278 29.5466 53.6278 28.7922 51.6577 28.7922V28.5126H57.9577Z" fill="white"/>
<path d="M62.2065 41.5639V31.2237C62.2065 29.2394 61.596 28.8202 60.375 28.8202V28.5126H66.3422V28.8202C65.1485 28.8202 64.3162 28.9877 64.3162 31.2796V41.8157C64.3162 45.3929 66.3695 47.4051 69.5889 47.4051C72.7809 47.4051 74.807 45.2808 74.807 41.6477V34.4095C74.807 30.441 74.696 28.8202 71.754 28.8202V28.5126H78.3595V28.8202C75.0011 28.8202 75.1124 30.441 75.1124 34.4095V41.6477C75.1401 46.1752 72.3368 48.4391 68.4238 48.4391C64.9267 48.4391 62.2065 46.1193 62.2065 41.5639Z" fill="white"/>
<path d="M84.84 28.8202H83.9795V38.8253H84.84C88.2261 38.8253 90.6681 38.8532 90.6681 33.8507C90.6681 28.6247 87.9484 28.8202 84.84 28.8202ZM95.9135 48.1874H94.0265C91.14 48.1874 91.4177 48.1594 90.0022 42.0949C89.3085 39.1329 86.3664 39.1329 85.2841 39.1329H83.9795V45.5046C83.9795 47.4609 84.479 47.8802 85.6446 47.8802V48.1874H80.3438V47.8802C81.5374 47.8802 81.9257 47.5447 81.9257 44.9452V30.7765C81.9257 29.0435 81.5648 28.8202 80.3438 28.8202V28.5126H84.84C90.3631 28.5126 93.0274 29.1836 93.0274 33.8507C93.0274 37.8192 90.8072 38.9091 87.9761 38.9928C89.8358 39.1883 91.5564 38.8811 93.0551 45.5325C93.5269 47.6843 95.1925 47.8239 95.9135 47.8802V48.1874Z" fill="white"/>
</g>
<defs>
<clipPath id="clip0_6612_15138">
<rect width="96" height="60" fill="white"/>
</clipPath>
</defs>
</svg>
