<svg xmlns="http://www.w3.org/2000/svg" width="64" height="49" fill="none" viewBox="0 0 64 49"><path fill="#C1825B" d="M58.622 13.183a18.4 18.4 0 0 0 3.98-5.98 18.5 18.5 0 0 0 0-14.112 18.4 18.4 0 0 0-3.98-5.98L34.424-37.154l-2.5-2.512-2.48 2.512L5.378-12.889a18.4 18.4 0 0 0-3.98 5.98 18.5 18.5 0 0 0 0 14.112 18.4 18.4 0 0 0 3.98 5.98L29.501 37.43V49h4.923V37.43zm-1.515-1.541L34.424 34.365v-3.806l27.095-27.12a16.14 16.14 0 0 1-4.374 8.203zM34.424 16.38 59.228-8.55A16.3 16.3 0 0 1 61.765.109L34.424 27.533zm0-22.133 14.068-14.14 5.548 5.576-19.616 19.64zm0-3.045v-4.967l10.11-10.162 2.443 2.455zm-5-11.97-6.532-6.623 2.443-2.455 4.166 4.187zm0 3.045V-5.43L15.263-19.78l6.116-6.147zm0 15.358v4.89L11.23-15.762l2.442-2.436zm0 25.882-26.83-27.1A16.7 16.7 0 0 1 3.618-6.61l25.884 26.015zm28.592-33.78L34.424 13.278v-4.89l21.206-21.24 1.477 1.485c.322.324.625.666.909 1.009zm-14.92-15.225-8.672 8.678v-17.28zM29.5-28.818l-2.651-2.608 2.65-2.664zM6.893-11.405l2.916-2.874 19.71 19.793V16.38L4.698-8.55a17 17 0 0 1 2.215-2.779zm.019 23.085A16.1 16.1 0 0 1 3.4 6.448 16.2 16.2 0 0 1 2.16.26V-.805L29.5 26.524v7.84z"/></svg>