<svg xmlns="http://www.w3.org/2000/svg" width="96" height="60" fill="none" viewBox="0 0 96 60"><g fill="#fff" clip-path="url(#a)"><path d="m46.301 20.608-19.02-.001v-1.119h19.02zm3.293.008v-1.119h19.02v1.119zm-7.189-8.31a3.6 3.6 0 0 1-1.052-2.558c0-.079.006-.157.01-.235l6.058 6.1v1.744zm0-5.116.643-.649 4.373 4.404v2.407l-5.506-5.545q.209-.332.49-.617m5.016-3.87-.586-.59.586-.591zm3.018.739-1.908 1.92.001-3.84zm3.31 3.355-5.218 5.255v-1.09l4.689-4.72.328.331q.107.109.202.224m-6.328 7.52L41.45 8.92q.08-.348.227-.673l5.743 5.783zm0-5.757v1.089l-4.035-4.064.54-.544zm0-3.41v2.731l-3.157-3.18 1.356-1.365zm0-.68-1.463-1.474.54-.544.923.93zm1.11 2.66V6.658l2.245-2.26.54.545zm0 .679 3.123-3.144 1.229 1.238-4.354 4.38zm0 4.922 5.506-5.542c.361.57.559 1.23.562 1.922l-6.068 6.11zm5.017-1.042-5.017 5.051v-.84l5.995-6.036a3.6 3.6 0 0 1-.978 1.825m.337.34a4.1 4.1 0 0 0 1.193-2.898 4.1 4.1 0 0 0-1.193-2.898l-5.354-5.39v-.003h-.002L47.977.9l-.552.556h-.004v.003l-5.354 5.39a4.1 4.1 0 0 0-1.192 2.899 4.1 4.1 0 0 0 1.192 2.898l5.354 5.39v2.573h1.11v-2.572zM12.065 57.777h-1.058v-1.512h1.058c.974 0 .974 1.512 0 1.512m0-1.722H10.78v2.947h.226v-1.019h1.058c1.27 0 1.27-1.928 0-1.928m3.536 1.616v-1.405h1.063c.485 0 .72.357.715.703-.005.412-.23.702-.74.702zm2.024-.698c-.003-.459-.325-.918-.961-.918h-1.288v2.947h.226v-1.115h.798l1.012 1.115h.297l-1.033-1.128c.64 0 .954-.422.95-.901m3.725 1.867c-.83 0-1.25-.648-1.254-1.313-.004-.695.414-1.31 1.255-1.31.84 0 1.259.627 1.259 1.31 0 .666-.423 1.314-1.26 1.314m0-2.833c-.986 0-1.475.724-1.475 1.516 0 .779.493 1.528 1.476 1.528.982 0 1.472-.746 1.476-1.52.004-.796-.49-1.524-1.476-1.524m7.094 1.663v-1.406h1.062c.485 0 .72.358.715.704-.005.412-.23.702-.74.702zm2.023-.698c-.003-.46-.325-.918-.961-.918h-1.288v2.947h.226v-1.116h.799l1.01 1.116h.298l-1.033-1.128c.64 0 .954-.421.95-.901m2.565.647 1.715.001v-.207h-1.715V56.27h1.798v-.214h-2.02v2.947h2.07v-.22h-1.848zm5.471.057h1.02v.824a1.3 1.3 0 0 1-.89.341c-.854 0-1.293-.597-1.293-1.293-.004-.681.435-1.313 1.292-1.313.33 0 .686.127.941.379l.13-.143a1.52 1.52 0 0 0-1.07-.442c-.892 0-1.514.602-1.51 1.524 0 .804.514 1.503 1.51 1.503.434 0 .798-.168 1.103-.476v-1.103h-1.233zm3.998-.056h1.714v-.207h-1.714V56.27l1.798.001v-.215h-2.02v2.947h2.07v-.218h-1.848zm7.5-.001h1.714v-.206h-1.714V56.27H51.8v-.214h-2.019v2.947h2.07v-.22h-1.848zm4.185-1.341h1.057v2.74h.226v-2.74h1.058v-.202h-2.342zm8.971 1.497H62.1v-1.511h1.058c.974 0 .974 1.511 0 1.511m0-1.721h-1.284v2.947h.226v-1.019h1.058c1.27 0 1.27-1.928 0-1.928m3.678 2.012.785-1.793.787 1.793zm.665-2.012-1.314 2.947h.243l.318-.724h1.748l.322.724h.242l-1.312-2.947zm3.093.225h1.058v2.74h.226v-2.74h1.058v-.203h-2.342zm4.82 1.391v-1.406h1.061c.486 0 .72.358.716.703-.004.413-.23.703-.74.703zm2.023-.7c-.004-.458-.325-.916-.962-.916h-1.287v2.947h.226v-1.116h.798l1.012 1.116h.297l-1.033-1.129c.64 0 .953-.42.95-.901m2.565-.917h-.222v2.947h.222zm2.957 2.012.787-1.793.786 1.793zm.913-2.012h-.248l-1.312 2.947h.242l.318-.724h1.748l.321.724h.243z"/><path d="M12.065 57.777h-1.058v-1.512h1.058c.974 0 .974 1.512 0 1.512m0-1.722H10.78v2.947h.226v-1.019h1.058c1.27 0 1.27-1.928 0-1.928m3.536 1.616v-1.405h1.063c.485 0 .72.357.715.703-.005.412-.23.702-.74.702zm2.024-.698c-.003-.459-.325-.918-.961-.918h-1.288v2.947h.226v-1.115h.798l1.012 1.115h.297l-1.033-1.128c.64 0 .954-.422.95-.901m3.725 1.867c-.83 0-1.25-.648-1.254-1.313-.004-.695.414-1.31 1.255-1.31.84 0 1.259.627 1.259 1.31 0 .666-.423 1.314-1.26 1.314m0-2.833c-.986 0-1.475.724-1.475 1.516 0 .779.493 1.528 1.476 1.528.982 0 1.472-.746 1.476-1.52.004-.796-.49-1.524-1.476-1.524m7.094 1.663v-1.406h1.062c.485 0 .72.358.715.704-.005.412-.23.702-.74.702zm2.023-.698c-.003-.46-.325-.918-.961-.918h-1.288v2.947h.226v-1.116h.799l1.01 1.116h.298l-1.033-1.128c.64 0 .954-.421.95-.901m2.565.647 1.715.001v-.207h-1.715V56.27h1.798v-.214h-2.02v2.947h2.07v-.22h-1.848zm5.471.057h1.02v.824a1.3 1.3 0 0 1-.89.341c-.854 0-1.293-.597-1.293-1.293-.004-.681.435-1.313 1.292-1.313.33 0 .686.127.941.379l.13-.143a1.52 1.52 0 0 0-1.07-.442c-.892 0-1.514.602-1.51 1.524 0 .804.514 1.503 1.51 1.503.434 0 .798-.168 1.103-.476v-1.103h-1.233zm3.998-.056h1.714v-.207h-1.714V56.27l1.798.001v-.215h-2.02v2.947h2.07v-.218h-1.848zm7.5-.001h1.714v-.206h-1.714V56.27H51.8v-.214h-2.019v2.947h2.07v-.22h-1.848zm4.185-1.341h1.057v2.74h.226v-2.74h1.058v-.202h-2.342zm8.971 1.497H62.1v-1.511h1.058c.974 0 .974 1.511 0 1.511m0-1.721h-1.284v2.947h.226v-1.019h1.058c1.27 0 1.27-1.928 0-1.928m3.678 2.012.785-1.793.787 1.793zm.665-2.012-1.314 2.947h.243l.318-.724h1.748l.322.724h.242l-1.312-2.947zm3.093.225h1.058v2.74h.226v-2.74h1.058v-.203h-2.342zm4.82 1.391v-1.406h1.061c.486 0 .72.358.716.703-.004.413-.23.703-.74.703zm2.023-.7c-.004-.458-.325-.916-.962-.916h-1.287v2.947h.226v-1.116h.798l1.012 1.116h.297l-1.033-1.129c.64 0 .953-.42.95-.901m2.565-.917h-.222v2.947h.222zm2.957 2.012.787-1.793.786 1.793zm.913-2.012h-.248l-1.312 2.947h.242l.318-.724h1.748l.321.724h.243zM19.04 28.513v.307c-2.11 0-2.498-.028-4.885 6.68l-4.69 12.687H9.13c-1.692-4.136-6.52-17.439-6.52-17.439-.723-1.9-1.555-1.928-2.61-1.928v-.307h6.745v.307c-2.277 0-1.971 1.788-1.86 2.068l5.273 14.672 3.692-10.116c1.332-3.885 2.498-6.624-1.222-6.624v-.307zm8.521 0v.28c-1.193 0-1.721.334-1.721 2.067v14.532c0 1.9.555 2.488 1.721 2.488v.307h-5.717v-.307c1.193 0 1.748-.587 1.748-2.488V30.86c0-1.733-.527-2.068-1.748-2.068v-.28zM41.58 41.676l-3.774-9.81-3.525 9.81zm6.162 6.511h-5.523v-.307c1.165 0 1.47-.895.471-3.242l-.999-2.655h-7.494c-1.165 3.354-2.109 5.953 1.5 5.897v.307h-5.885v-.307c1.221 0 1.915-.307 4.163-6.652l4.58-12.715h.194c1.693 4.108 6.745 16.964 6.745 16.964.888 2.235 1.443 2.347 2.248 2.403zm10.216-19.674v.28c-1.25 0-2.11.782-2.11 2.57v11.738c0 6.316-2.303 9.082-6.827 9.753l-.084-.28c2.388-.866 4.69-2.878 4.69-8.942v-8.86c0-5.225 0-5.98-1.97-5.98v-.28zm4.249 13.051v-10.34c0-1.985-.611-2.404-1.832-2.404v-.307h5.967v.307c-1.194 0-2.026.168-2.026 2.46v10.536c0 3.577 2.053 5.59 5.273 5.59 3.192 0 5.218-2.125 5.218-5.758v-7.239c0-3.968-.111-5.589-3.053-5.589v-.307h6.605v.307c-3.358 0-3.247 1.621-3.247 5.59v7.238c.028 4.527-2.775 6.791-6.688 6.791-3.497 0-6.218-2.32-6.218-6.875M84.84 28.82h-.86v10.005h.86c3.386 0 5.828.028 5.828-4.974 0-5.226-2.72-5.03-5.828-5.03m11.073 19.367h-1.886c-2.887 0-2.61-.028-4.025-6.092-.694-2.962-3.636-2.962-4.718-2.962H83.98v6.372c0 1.956.5 2.375 1.666 2.375v.307h-5.301v-.307c1.193 0 1.582-.335 1.582-2.935v-14.17c0-1.732-.361-1.956-1.582-1.956v-.307h4.496c5.523 0 8.187.67 8.187 5.338 0 3.968-2.22 5.058-5.05 5.142 1.859.195 3.58-.112 5.078 6.54.472 2.151 2.137 2.29 2.858 2.347z"/></g><defs><clipPath id="a"><path fill="#fff" d="M0 0h96v60H0z"/></clipPath></defs></svg>